<mxfile host="app.diagrams.net" modified="2023-10-16T15:48:09.565Z" agent="Mozilla/5.0 (Macintosh; Intel Mac OS X 10_15_7) AppleWebKit/537.36 (KHTML, like Gecko) Chrome/118.0.0.0 Safari/537.36" version="22.0.4" etag="x76Mvk8R4yl70yiBZtac" type="github">
  <diagram name="페이지-1" id="wd6lJLl8Wt3_9PV3Q6gp">
    <mxGraphModel>
      <root>
        <mxCell id="0" />
        <mxCell id="1" parent="0" />
      </root>
    </mxGraphModel>
  </diagram>
</mxfile>
